<svg width="471" height="451" viewBox="0 0 471 451" fill="none" xmlns="http://www.w3.org/2000/svg">
<rect width="471" height="451" fill="white"/>
<path d="M211.514 303.043L203.255 298.399C220.929 308.307 261.517 314.135 271.219 289.581C290.238 241.448 196.126 209.897 219.926 149.665C231.774 119.68 266.054 122.832 287.532 134.871C301.179 142.521 297.688 142.761 305.518 147.15C313.702 151.738 316.624 149.214 325.569 139.118L329.874 140.89L291.316 195.675L290.923 194.534C288.793 188.357 290.932 181.711 294.671 176.353C306.035 160.064 295.263 146.085 288.709 141.17C279.694 134.634 259.311 132.504 248.353 152.042C229.51 198.347 322.004 227.448 299.14 285.313C283.116 325.868 235.452 316.462 211.514 303.043Z" fill="#2D4B48"/>
<path d="M272.821 201.733C274.657 203.604 276.412 205.455 278.087 207.287C293.4 224.088 307.058 243.337 309.604 265.108C312.558 286.726 299.235 308.49 278.438 317.918C276.156 318.995 273.796 319.939 271.371 320.743C273.895 320.35 276.402 319.782 278.868 319.042C301.309 313.067 319.449 289.01 315.9 264.424C312.939 239.95 296.574 220.788 278.91 206.409C276.963 204.844 274.934 203.285 272.821 201.733Z" fill="#2D4B48"/>
<path d="M297.95 215.663C299.464 217.422 300.873 219.145 302.246 220.903C314.707 236.75 323.64 255.563 322.568 274.847C321.718 293.911 310.056 312.402 291.634 320.753C289.602 321.679 287.5 322.478 285.332 323.139C287.585 322.892 289.826 322.473 292.038 321.886C312.212 316.823 328.108 296.77 328.891 275.188C330.082 253.383 318.162 233.632 303.127 220.084C301.461 218.569 299.758 217.118 297.95 215.663Z" fill="#2D4B48"/>
<path d="M148.194 177.846C142.848 170.591 132.999 153.562 123.997 155.357L123 150.355L187.017 150.867L188.014 155.868L187.013 156.068C178.011 157.862 175.857 164.011 181.203 171.266L233.195 240.992C243.515 254.831 245.965 273.015 239.678 289.092L236.48 297.268L148.194 177.846Z" fill="#2D4B48"/>
</svg>
